<?xml version="1.0" encoding="UTF-8" standalone="no"?>
<!-- Created with Inkscape (http://www.inkscape.org/) -->

<svg
   version="1.1"
   id="svg2"
   width="5910.5469"
   height="1974.28"
   viewBox="0 0 5910.5469 1974.28"
   sodipodi:docname="vecteezy_retro-glasses-vector_.eps"
   xmlns:inkscape="http://www.inkscape.org/namespaces/inkscape"
   xmlns:sodipodi="http://sodipodi.sourceforge.net/DTD/sodipodi-0.dtd"
   xmlns="http://www.w3.org/2000/svg"
   xmlns:svg="http://www.w3.org/2000/svg">
  <defs
     id="defs6" />
  <sodipodi:namedview
     id="namedview4"
     pagecolor="#ffffff"
     bordercolor="#000000"
     borderopacity="0.25"
     inkscape:showpageshadow="2"
     inkscape:pageopacity="0.0"
     inkscape:pagecheckerboard="0"
     inkscape:deskcolor="#d1d1d1" />
  <g
     id="g8"
     inkscape:groupmode="layer"
     inkscape:label="ink_ext_XXXXXX"
     transform="matrix(1.3333333,0,0,-1.3333333,0,1974.28)">
    <g
       id="g10"
       transform="scale(0.1)">
      <path
         d="M 7.54688,13593.2 C 130.277,12861.4 224.711,12273.8 353.652,11510.3 c 30.723,-182 122.371,-327.6 273.114,-434.1 C 2118.03,10022.4 2056.9,8406.3 2490.84,6696.98 3493.61,2747 4502.7,934.5 6801.22,413.301 c 2298.51,-521.102 5629.48,-752 8948.28,557 1159.3,457.199 2301.2,1438.099 3490.2,4307.019 695.4,1678.09 1277.2,3594.93 2924.9,3594.93 1647.7,0 2229.4,-1916.84 2924.9,-3594.93 1188.9,-2868.92 2331,-3849.82 3490.1,-4307.019 3318.8,-1309 6649.8,-1078.102 8948.3,-557 2298.6,521.199 3307.6,2333.699 4310.4,6283.679 433.9,1709.32 372.8,3325.42 1864.1,4379.22 150.7,106.5 242.4,252.1 273.1,434.1 128.9,763.5 223.4,1351.1 346.1,2082.9 23.3,138.9 -7.4,267 -91.1,380.3 -83.7,113.4 -197.1,180.4 -336.7,199 -3779.1,503.1 -7685.6,800.6 -11749.7,535.8 -2603.9,-169.7 -5017.4,-648 -6534.8,-2005 -617.3,-552.1 -1273.1,-936.9 -2005,-965.4 -215.5,-8.4 -2664,-8.4 -2879.4,0 -731.9,28.5 -1387.8,413.3 -2005,965.4 -1517.4,1357 -3931,1835.3 -6534.9,2005 -4064.06,264.8 -7970.6,-32.7 -11749.629,-535.8 -139.652,-18.6 -253.051,-85.6 -336.7421,-199 -83.6719,-113.3 -114.375,-241.4 -91.08202,-380.3 v 0"
         style="fill:#231f20;fill-opacity:1;fill-rule:evenodd;stroke:none"
         id="path12" />
      <path
         d="m 12098.2,13375.5 c -2631.09,68.2 -5079.44,2.8 -6793.4,-872.3 C 1673.5,10649.3 4417.46,1889.2 7096.57,1281.7 9775.6,674.301 12514.2,695.898 15259.5,1778.6 c 1399.8,552.1 2211.3,2284.8 2746.4,3576.01 861.5,2228.65 1248,4876.89 -176.3,6353.19 -1070.8,1109.8 -3938.7,1621.3 -5731.4,1667.7 v 0"
         style="fill:#ffffff;fill-opacity:1;fill-rule:evenodd;stroke:none"
         id="path14" />
      <path
         d="m 32230.9,13375.5 c 2631.1,68.2 5079.5,2.8 6793.4,-872.3 3631.3,-1853.9 887.4,-10614 -1791.6,-11221.5 -2679.2,-607.399 -5417.8,-585.802 -8163,496.9 -1399.8,552.1 -2211.4,2284.8 -2746.5,3576.01 -861.4,2228.65 -1247.9,4876.89 176.3,6353.19 1070.8,1109.8 3938.8,1621.3 5731.4,1667.7 v 0"
         style="fill:#ffffff;fill-opacity:1;fill-rule:evenodd;stroke:none"
         id="path16" />
    </g>
  </g>
</svg>
